<?xml version="1.0" encoding="utf-8"?>
<!-- You got to be kiddin' me! Mail me: venetz@gmail.com -->
<svg version="1.1" id="Ebene_1" xmlns="http://www.w3.org/2000/svg" xmlns:xlink="http://www.w3.org/1999/xlink" x="0px" y="0px"
	 viewBox="0 0 56.7 56.7" enable-background="new 0 0 56.7 56.7" xml:space="preserve">
<g>
	<rect x="40.9" y="11.4" transform="matrix(0.7079 0.7063 -0.7063 0.7079 21.9735 -28.3229)" fill="#D90000" width="8.7" height="2"/>
	<path fill="#D90000" d="M3.5,49.4h2V20.6h17.2v15.8c0,0.9-0.7,1.2-0.9,1.3c-0.4,0.2-1.1,0.2-1.5-0.3L14,31.2l-1.4,1.4l6.2,6.2
		c1,1,2.4,1.2,3.7,0.7c1.3-0.5,2.1-1.7,2.1-3.1V18.6H3.5V49.4z"/>
	<path fill="#D90000" d="M32.3,18.6v2h19.1v17.2H35.7c-0.9,0-1.2-0.7-1.3-0.9c-0.2-0.4-0.2-1.1,0.3-1.5l6.2-6.2l-1.4-1.4L33.3,34
		c-1,1-1.2,2.4-0.7,3.7c0.5,1.3,1.7,2.1,3.1,2.1h17.7V18.6H32.3z"/>
</g>
</svg>
